<?xml version="1.0" encoding="utf-8"?>
<!-- Generator: Adobe Illustrator 21.1.0, SVG Export Plug-In . SVG Version: 6.00 Build 0)  -->
<svg version="1.1" id="Layer_1" xmlns="http://www.w3.org/2000/svg" xmlns:xlink="http://www.w3.org/1999/xlink" x="0px" y="0px"
	 viewBox="0 0 20 15.6" style="enable-background:new 0 0 20 15.6;" xml:space="preserve">
<style type="text/css">
	.st0{fill:#1D1121;}
	.st1{fill:#D90D81;}
</style>
<path class="st0" d="M19,7.8v6.3c0,0.6-0.1,0.7-0.7,0.7c-1,0-1.9,0-2.9,0c-0.3,0-0.5-0.1-0.7-0.4C13,11.7,11.5,8.9,10,6.1
	C9.9,6,9.8,5.7,9.6,5.8C9.4,5.8,9.5,6.1,9.5,6.3V14c0,0.8-0.1,0.9-0.8,0.9H7c-0.4,0-0.6-0.2-0.6-0.6c0-0.2,0-0.4,0-0.6V1.6
	c0-0.7,0.1-0.8,0.8-0.8h3c0.3,0,0.5,0.1,0.7,0.4c0.8,1.5,1.7,3.1,2.6,4.5c0.7,1.2,1.4,2.4,2.1,3.6c0.1,0.1,0.1,0.3,0.2,0.3
	c0.2,0,0.1-0.3,0.1-0.4V1.7c0-0.9,0-1,1-1c0.5,0,1,0,1.4,0c0.5,0,0.7,0.2,0.7,0.7C19,3.6,19,5.7,19,7.8L19,7.8z"/>
<path class="st1" d="M0.9,2.3C0.9,1,0.9,1,2.2,1c0.5,0,1.1-0.2,1.6,0C4,1.1,4.1,1.1,4.1,1.3v1.9c0,0.2-0.1,0.3-0.3,0.3
	c-0.8,0-1.6,0.1-2.4,0C1,3.5,0.9,3.4,0.9,3C1,2.8,0.9,2.5,0.9,2.3z"/>
</svg>
