<?xml version="1.0" encoding="utf-8"?>
<!-- Generator: Adobe Illustrator 21.1.0, SVG Export Plug-In . SVG Version: 6.00 Build 0)  -->
<svg version="1.1" id="Layer_1" xmlns="http://www.w3.org/2000/svg" xmlns:xlink="http://www.w3.org/1999/xlink" x="0px" y="0px"
	 viewBox="0 0 1659 1712.5" style="enable-background:new 0 0 1659 1712.5;" xml:space="preserve">
<style type="text/css">
	.st0{fill:#00E676;}
	.st1{fill:#FFFFFF;}
</style>
<path class="st0" d="M436.6,1480.3l27.1,13.5c110.5,65.7,236.7,100,365.3,99.3c395.7-0.9,720.7-326.8,720.7-722.4
	c0-191.2-75.9-374.8-211-510.2c-134.9-136.8-319.1-213.8-511.1-213.8c-393.8,0-717.9,324.1-717.9,717.9c0,3.1,0,6.2,0,9.3
	c1.2,133.9,38.6,265,108.4,379.3l18.1,27.1l-72.2,266.4L436.6,1480.3L436.6,1480.3z"/>
<path class="st1" d="M1419.1,279.3C1265.3,122.4,1054.4,34.4,834.8,35.5h-1.4C381.2,35.5,9,407.7,9,859.9c0,2.1,0,4.2,0,6.3
	c1.7,143.8,38.9,284.9,108.4,410.9L0,1706l437.5-112.9c120.9,66.4,256.7,100.6,394.6,99.3c453.9-2.5,826.1-376.8,825.8-830.8
	C1659,643.6,1573,433.8,1419.1,279.3 M834.8,1552.5c-122.2,0.6-242.3-32.2-347.2-94.8l-27.1-13.5L200,1511.9l67.7-257.4l-18.1-27.1
	c-67.1-108.3-102.6-233.2-102.6-360.6c0-375.7,309.2-684.9,684.9-684.9c375.7,0,684.9,309.2,684.9,684.9
	c0,236.6-122.6,457-323.6,581.9c-106.3,68.1-230,104.2-356.2,103.8 M1234,1051.4l-49.7-22.6c0,0-72.2-31.6-117.4-54.2
	c-4.5,0-9-4.5-13.5-4.5c-11.1,0.3-22,3.4-31.6,9c-9.6,5.6-4.5,4.5-67.7,76.8c-4.3,8.4-13.1,13.7-22.6,13.5h-4.5
	c-6.8-1.1-13.1-4.3-18.1-9l-22.6-9c-48.4-20.5-92.8-49.6-130.9-85.8c-9-9-22.6-18.1-31.6-27.1c-33.4-32-62.3-68.5-85.8-108.4l-4.5-9
	c-3.9-5.5-7-11.6-9-18.1c-1.2-7.8,0.4-15.8,4.5-22.6c4.1-6.8,18.1-22.6,31.6-36.1c13.5-13.5,13.5-22.6,22.6-31.6
	c9.4-13,12.7-29.5,9-45.2c-21-58.4-45.2-115.7-72.2-171.6c-7.3-11.3-18.6-19.4-31.6-22.6h-49.7c-9,0-18.1,4.5-27.1,4.5l-4.5,4.5
	c-9,4.5-18.1,13.5-27.1,18.1c-9,4.5-13.5,18.1-22.6,27.1c-31.6,39.9-49,89.1-49.7,140c0.5,35.8,8.2,71.1,22.6,103.8l4.5,13.5
	c40.5,86.7,97.2,164.8,167.1,230.3l18.1,18.1c13.1,10.9,25.2,23,36.1,36.1c93.6,81.4,204.7,140.1,324.6,171.6
	c13.5,4.5,31.6,4.5,45.1,9h45.2c23.6-1.2,46.7-7.3,67.7-18.1c11.1-5,21.6-11.1,31.6-18.1l9-9c9-9,18.1-13.5,27.1-22.6
	c8.8-7.9,16.4-17,22.6-27.1c8.7-20.2,14.8-41.4,18.1-63.2v-31.6c-4.1-3.6-8.6-6.7-13.5-9"/>
</svg>
