<?xml version="1.0" encoding="utf-8"?>
<!-- Generator: Adobe Illustrator 21.1.0, SVG Export Plug-In . SVG Version: 6.00 Build 0)  -->
<svg version="1.1" id="Layer_1" xmlns="http://www.w3.org/2000/svg" xmlns:xlink="http://www.w3.org/1999/xlink" x="0px" y="0px"
	 viewBox="0 0 594 230" style="enable-background:new 0 0 594 230;" xml:space="preserve">
<style type="text/css">
	.st0{fill:#303030;}
</style>
<g>
	<path class="st0" d="M502.9,47.9c40,4.8,50.6,45.3,20.7,70.4c30.7,6.9,30.1,52.9,4.1,66.1c-2.9,1.5-14.6,5.9-17.1,5.9h-82.9
		c-2.7,0-4.8-2.4-4.3-5.1c3.9-22.9,13.8-44.9,18.9-67.6l-19.8-62.7c-0.4-1.4-0.2-2.9,0.6-4.1l0.3-0.5c1-1.4,2.6-2.2,4.3-2.1
		C451.7,49.7,479.8,45.2,502.9,47.9L502.9,47.9z M493.8,73.9c-10.5-1.3-25.6,0-36.7,0c-0.9,0-2.1,2.2-2.1,3.5
		c0.1,1.4,8.1,26.4,8.8,27.6c3.3,5.3,38.9,4.5,44.3-6.1C514.9,85.7,507.1,75.6,493.8,73.9L493.8,73.9z M457,164.2
		c7.9,2,35.6,0,45.9,0c3.8,0,12.5-6.5,13.9-10.6c8.9-28.8-35.2-23.4-51.4-22.3c-1.5,0.9-9.5,26.2-10.1,29.8
		C455.1,162.6,456,164,457,164.2L457,164.2z M135.7,47.9c28.2,2.6,46.9,19.8,38.9,49.6c-2.7,10.2-8,13.9-15.2,20.7
		c31.9,7.4,29.9,55.4,2.1,67.2c-2.6,1.1-14.7,4.8-16.7,4.8H60.7c-1.1,0-3-3.3-2-4.9l19.7-67.8L58.7,52.8c-1-1.6,0.9-4.9,2-4.9
		C84.2,47.9,113,45.8,135.7,47.9z M92.8,73.9c-1.5,1.2-1.8,1.3-1.7,3.2c0.1,2.6,8.8,28.9,10.1,29.8c14.4,0.7,44.9,6.1,45.9-15.5
		c0.4-7.7-6.7-17.5-14.4-17.5L92.8,73.9L92.8,73.9z M92.8,164.2c8.1,2,36.8,0,47.4,0c8.2,0,14.7-10.5,13.9-18.5
		c-2.4-21.9-37.7-14.4-52.9-14.5c-1.3,0.9-9.4,26.4-10,29.8C90.9,162.6,91.8,164,92.8,164.2L92.8,164.2z M297.1,142.8
		c0.5,21.4,29,29.2,44.9,18.1c3.7-2.6,4-7.4,9.3-7.2c1.8,0,19.9,5.2,20.5,6.1c4.4,6.2-13,22-18.3,25c-32,18-80.9,0.6-85.4-38.3
		c-5.3-45.5,19.6-79.9,67.8-72.3c20.5,3.2,40.7,21.8,40.7,43.4v23c0,1.3-1,2.3-2.3,2.3H297.1L297.1,142.8z M349.1,119.8
		c-1.9-29.9-49.1-28.6-52,0H349.1z"/>
	<path class="st0" d="M219.8,73.9c4.8,1.5,0.6,21.4,3.1,21.4c1.7-9.4,13.2-21.4,22.9-21.4H278c1,0,2.4,2.6,2.4,3.8
		c0,3.2-5.8,5.1-11.4,13.1c-2.4,3.5-4.9,11.8-7.6,13.8c-6.5,4.7-24.6-3-34,6.5c-1.1,1.1-5,4.1-5.1,9.4v67.3c0,1.3-1,2.3-2.3,2.3
		h-24.5c-1.3,0-2.3-1-2.3-2.3V76.2c0-0.2,2.1-2.3,2.3-2.3C200.6,73.9,216.3,72.8,219.8,73.9L219.8,73.9z M389.9,107.1
		c0-0.5,0.3-0.8,0.8-0.8c5.3-0.1,34.9-0.5,36.5,0.5c5.1,3.1,6.2,21.1-3.8,22.3c-3.6,0.4-27.8,0.2-32.5,0.1c-0.4,0-0.8-0.4-0.8-0.8
		L389.9,107.1L389.9,107.1z"/>
</g>
</svg>
