<svg xmlns="http://www.w3.org/2000/svg" viewBox="0 0 448 603.48"><defs><style>.cls-1{font-size:90px;font-family:Lora-Medium, Lora;}.cls-1,.cls-8{fill:#41494d;}.cls-2{letter-spacing:0.02em;}.cls-3{letter-spacing:0em;}.cls-4{letter-spacing:-0.01em;}.cls-5{letter-spacing:0em;}.cls-6{letter-spacing:-0.01em;}.cls-7{letter-spacing:0em;}.cls-8{font-size:35.62px;font-family:Lora-Regular, Lora;}.cls-9{letter-spacing:0em;}.cls-10{fill:#424a4d;}.cls-11,.cls-13{fill:none;}.cls-12{fill:#43494f;}.cls-13{stroke:#424a4d;stroke-linecap:round;stroke-miterlimit:10;stroke-width:3px;}</style></defs><title>La Rivera logo</title><g id="Layer_2" data-name="Layer 2"><g id="Layer_1-2" data-name="Layer 1"><text class="cls-1" transform="translate(20.35 546.96)"><tspan class="cls-2">L</tspan><tspan x="54.18" y="0">a R</tspan><tspan class="cls-3" x="182.79" y="0">i</tspan><tspan class="cls-4" x="209.25" y="0">v</tspan><tspan class="cls-5" x="255.06" y="0">e</tspan><tspan class="cls-6" x="303.75" y="0">r</tspan><tspan class="cls-7" x="343.62" y="0">a</tspan></text><text class="cls-8" transform="translate(106.65 593.83)">de la A<tspan class="cls-9" x="109.69" y="0">ce</tspan><tspan x="147.59" y="0">quia</tspan></text><path class="cls-10" d="M74,370.5c11.63-3.49,23.45-6.3,35.4-8.65a341.34,341.34,0,0,1,36.26-4.91,272.46,272.46,0,0,1,36.76-.32,277.8,277.8,0,0,1,36.47,4.84c12,2.34,23.8,5.16,35.54,8,5.88,1.39,11.73,2.81,17.59,4.12s11.76,2.57,17.65,3.71,11.79,2.16,17.72,3,11.88,1.39,17.85,1.74A118.42,118.42,0,0,0,361,379c-11.2,4.77-23.56,6.69-35.79,7.17a178.08,178.08,0,0,1-18.39-.34c-6.12-.37-12.2-1.06-18.25-1.87s-12.06-1.81-18.05-2.87-12-2.2-17.92-3.43c-11.89-2.42-23.65-5.1-35.43-7.37A339.19,339.19,0,0,0,181.78,365a332.42,332.42,0,0,0-35.8-1.15q-18,.39-36,2.22C98,367.23,86,368.87,74,370.5Z"/><path class="cls-10" d="M100.75,402.46a207.82,207.82,0,0,1,54.62-13.57,160.81,160.81,0,0,1,28.54-.29c2.38.23,4.77.45,7.14.77l3.55.52,3.53.59c4.7.84,9.32,1.92,13.9,3.06,9.16,2.35,18.09,5.15,26.94,7.94,4.43,1.38,8.83,2.78,13.25,4.08s8.87,2.55,13.32,3.68a153.71,153.71,0,0,0,27,4.73,70.29,70.29,0,0,0,27.23-3c-8.16,4.66-17.78,6.71-27.27,7.17a127.43,127.43,0,0,1-28.37-2.26c-4.65-.84-9.26-1.83-13.83-2.88s-9.15-2.2-13.66-3.43c-9-2.41-17.92-5.06-26.81-7.31A202.1,202.1,0,0,0,183.07,397a192.63,192.63,0,0,0-27.26-1.16c-9.15.25-18.33,1.06-27.5,2.23S110,400.84,100.75,402.46Z"/><path class="cls-10" d="M86,385.41a307.43,307.43,0,0,1,31.85-8.64,279.24,279.24,0,0,1,32.8-4.92,222.82,222.82,0,0,1,33.36-.31,229.09,229.09,0,0,1,33,4.87c10.82,2.34,21.45,5.16,32,8,5.28,1.39,10.54,2.8,15.81,4.11s10.58,2.56,15.87,3.7,10.61,2.16,15.94,3,10.7,1.39,16.09,1.74a97,97,0,0,0,32.25-3c-10,4.73-21.19,6.7-32.28,7.17a145.87,145.87,0,0,1-16.68-.35c-5.55-.37-11.06-1.06-16.54-1.88S268.59,397,263.19,396s-10.81-2.2-16.16-3.43c-10.71-2.42-21.3-5.09-31.89-7.35a278.27,278.27,0,0,0-31.84-5.29A270.32,270.32,0,0,0,151,378.76q-16.22.39-32.49,2.22C107.69,382.15,96.87,383.78,86,385.41Z"/><path class="cls-11" d="M433.69,224A209.75,209.75,0,0,0,30.78,142.38a209.69,209.69,0,0,0,341.49,229.9A212,212,0,0,0,388.57,354c-2.38,1-4.78,2-7.2,2.84-5.59,2.07-11.3,3.77-17,5.28-2.87.76-5.76,1.43-8.66,2.06s-5.81,1.14-8.74,1.59c-5.84.93-11.7,1.73-17.58,2.18s-11.76.72-17.65.77-11.76-.14-17.61-.59A163.8,163.8,0,0,1,276.67,366a295.92,295.92,0,0,0,34.87-1.21,277.69,277.69,0,0,0,34.25-5.15,209.06,209.06,0,0,0,32.9-9.88,162.33,162.33,0,0,0,15.54-7.07l1.9-1,1.86-1,.48-.27A208.88,208.88,0,0,0,433.69,224Z"/><path class="cls-10" d="M224,0C100.29,0,0,100.29,0,224S100.29,448,224,448A223.87,223.87,0,0,0,416.34,338.85q4.52-7.56,8.46-15.49A223.06,223.06,0,0,0,448,224C448,100.29,347.71,0,224,0ZM415.93,329.56q-4.31,7.84-9.25,15.28a219.42,219.42,0,1,1,9.25-15.28Z"/><path class="cls-10" d="M224,9.31C105.43,9.31,9.31,105.43,9.31,224S105.43,438.69,224,438.69a214.4,214.4,0,0,0,174.17-89.16q5.2-7.2,9.81-14.83A213.68,213.68,0,0,0,438.69,224C438.69,105.43,342.57,9.31,224,9.31ZM398.45,340.41l-.48.27-1.86,1-1.9,1a162.33,162.33,0,0,1-15.54,7.07,209.06,209.06,0,0,1-32.9,9.88,277.69,277.69,0,0,1-34.25,5.15A295.92,295.92,0,0,1,276.67,366a163.8,163.8,0,0,0,17.44,2.11c5.85.44,11.73.58,17.61.59s11.76-.32,17.65-.77,11.74-1.24,17.58-2.18c2.92-.45,5.83-1,8.74-1.59s5.79-1.29,8.66-2.06c5.74-1.51,11.45-3.21,17-5.28,2.42-.89,4.82-1.84,7.2-2.84a212,212,0,0,1-16.29,18.3,209.43,209.43,0,1,1,26.18-31.86Z"/><circle class="cls-12" cx="309.67" cy="114.33" r="22.5"/><line class="cls-13" x1="309.67" y1="86.63" x2="309.67" y2="53.88"/><line class="cls-13" x1="320.42" y1="88.8" x2="333.14" y2="58.62"/><line class="cls-13" x1="329.47" y1="94.95" x2="352.88" y2="72.05"/><line class="cls-13" x1="335.33" y1="103.87" x2="365.65" y2="91.51"/><line class="cls-13" x1="337.37" y1="114.32" x2="370.12" y2="114.31"/><line class="cls-13" x1="335.23" y1="125.01" x2="365.45" y2="137.63"/><line class="cls-13" x1="329.35" y1="133.84" x2="352.61" y2="156.89"/><line class="cls-13" x1="320.51" y1="139.83" x2="333.32" y2="169.97"/><line class="cls-13" x1="309.74" y1="142.04" x2="309.84" y2="174.79"/><line class="cls-13" x1="299.37" y1="140.06" x2="287.21" y2="170.47"/><line class="cls-13" x1="290.44" y1="134.28" x2="267.71" y2="157.86"/><line class="cls-13" x1="284.14" y1="125.12" x2="253.98" y2="137.87"/><line class="cls-13" x1="281.96" y1="114.33" x2="249.21" y2="114.33"/><line class="cls-13" x1="284.12" y1="103.61" x2="253.92" y2="90.92"/><line class="cls-13" x1="290.19" y1="94.63" x2="267.17" y2="71.34"/><line class="cls-13" x1="299.12" y1="88.71" x2="286.65" y2="58.43"/><path class="cls-10" d="M175.51,429.34a29.16,29.16,0,0,0,3.87.79Z"/><path class="cls-10" d="M264.82,206.65c-3.84-4.5-7.92-6.43-11.67-7-1.2-6.06-5.78-9-10.36-10.37,8.24-2.78,10.61-12.07,10.61-12.07a22.13,22.13,0,0,0-11.91-1.51,29.66,29.66,0,0,0,.82-4.92,12.58,12.58,0,0,0-8.61,1.13c1.79-6.55-2.15-12.67-2.15-12.67-.73.35-1.4.73-2,1.11a25.68,25.68,0,0,0,.11-4,18.58,18.58,0,0,0,6.2-10.73,25.11,25.11,0,0,0-6.13-.22,16.11,16.11,0,0,0,1.21-2,21.88,21.88,0,0,0-7.36-3,20.94,20.94,0,0,0,6.52-5.51,22.86,22.86,0,0,0-9.19-5.45,18.7,18.7,0,0,0,5.32-6.48c-10.88-6.42-19.58-7-26-5.53,6.7-6.56,3-16.24,3-16.24-5.74,1.44-9.28,4.24-11.45,7.35-6-1.62-10.62,1.19-13.9,4.68,1.17-8.61-6.1-14.86-6.1-14.86a22.14,22.14,0,0,0-6.64,10,31.09,31.09,0,0,0-3.69-2.71c4.89-7.63,1.88-16.49,1.88-16.49a25.75,25.75,0,0,0-8.49,4.56,22.41,22.41,0,0,0-.63-9.9,25.6,25.6,0,0,0-8.6,4.64,19.11,19.11,0,0,0-1-7.29c-8.08,2-11.81,6.74-13.48,11.23-2.44-10-13.69-11.9-13.69-11.9-1.78,6-1.23,10.78.34,14.51a31.51,31.51,0,0,0-5.36-1.23,17.88,17.88,0,0,0-.45,4.43,19.12,19.12,0,0,0-9.71-2.36,24.35,24.35,0,0,0,.26,5.45c-5.68-4.79-13.56-3.73-13.56-3.73a21.89,21.89,0,0,0,3.3,12,13.69,13.69,0,0,0-5.79,7.6c-4.67-7.34-14.29-6.75-14.29-6.75a20.37,20.37,0,0,0,2.34,11.49c-9.06-4.71-18.65,1.26-18.65,1.26a25.39,25.39,0,0,0,7.86,10.05C54.38,136.33,51,145.87,51,145.87a26.45,26.45,0,0,0,11.14,1.7c-3.38,2.12-5.12,5.92-6,9.39-5.28-8.89-16.62-7.36-16.62-7.36a21.63,21.63,0,0,0,3.63,12.47c-8-4.11-16,2-16,2A24.18,24.18,0,0,0,30.06,168a21,21,0,0,0-8.14-.55,23.15,23.15,0,0,0,2.46,9.85A16.77,16.77,0,0,0,17,175.65c-.46,6.3,1.61,10.45,4.29,13.19-5.57,3.34-7.7,9.64-7.7,9.64a23.7,23.7,0,0,0,9,2.46c-7.29,3.72-8.76,12.54-8.76,12.54,6.22,1.85,11.13,1.19,14.92-.53-5.66,5.22-5.39,15.74-5.39,15.74a12.58,12.58,0,0,0,8.49-1.84,15.38,15.38,0,0,0,1.07,8.58,20.92,20.92,0,0,0-3.24,7.62c6.86,2,12.11,1,16-1.08a16.08,16.08,0,0,0-2.85,9.43c7.1.52,11.48-2.18,14.17-5.34a17.22,17.22,0,0,0,1.11,2.5A21.51,21.51,0,0,0,66,243c2.77,7.26,10.73,10,10.73,10a23,23,0,0,0,2.49-10.16,18.21,18.21,0,0,0,2-1.37c.15,13.36,14.15,15.7,14.15,15.7,3.51-11.85-2-18.93-6.72-22.6.95-.15,1.9-.25,2.81-.42s1.84-.25,2.75-.41c.45-.08.9-.1,1.36-.16l1-.12-.07.12s10-.08,14,11.42-.6,23.38-.6,23.38S97,296.88,93,316.25,90.13,372.46,98.63,392l2.88,4.65,20.25,12.63,8.48,3.91q1.14,1.45,2.3,2.9l-1.24-2.41,26,12,18.26,3.71c-11.72-3.05-47-17.34-62.84-80.34,0,0-7.67-35.67,9.5-74.83a146.62,146.62,0,0,1,14.94-21.7,124.81,124.81,0,0,1,20.64-15.82c.9-.53,1.83-1,2.76-1.54a65.1,65.1,0,0,1,7.62-.27c1.43.09,2.87.11,4.31.29.72.08,1.45.09,2.17.21s1.45.2,2.18.28,1.39.19,2.08.31c-10,5.28-7.93,17.48-7.93,17.48a23.15,23.15,0,0,0,9.85-2.46,16.77,16.77,0,0,0-1.63,7.43c6.3.46,10.45-1.61,13.19-4.29,3.34,5.57,9.64,7.7,9.64,7.7a23.7,23.7,0,0,0,2.46-9c3.72,7.29,12.54,8.76,12.54,8.76,1.85-6.22,1.19-11.13-.53-14.92,5.22,5.66,15.74,5.39,15.74,5.39a12.58,12.58,0,0,0-1.84-8.49,15.38,15.38,0,0,0,8.58-1.07,20.92,20.92,0,0,0,7.62,3.24,22.86,22.86,0,0,0,.8-10.66,18.73,18.73,0,0,0,8.17,1.89c.92-12.6-2.43-20.64-6.58-25.74C257.81,214.3,264.82,206.65,264.82,206.65ZM158,229.28c-1.14.52-2.27,1.05-3.4,1.62a125.22,125.22,0,0,0-15.48,9.29c-2.45,1.76-4.88,3.57-7.2,5.52q-1.88,1.6-3.71,3.27c.32-6.62,1.4-29.35,2.11-46.45.06-.87.12-1.73.16-2.6l.34-6.92c.08-2.31.1-4.62.13-6.93,0-.17,0-.35,0-.52,0-.45,0-.86,0-1.22a72.48,72.48,0,0,1,2-7.48h0c4.16,5.35,11.1,6.51,11.1,6.51,2-6.83,1-12.06-1.05-16a29.69,29.69,0,0,0,10.21,1.8c1.24-11-9.35-15.11-14.9-16.49A22.8,22.8,0,0,0,145.81,142c-9.6-4.16-16.88-2.26-21.93,1a9.91,9.91,0,0,0-9.78-5.85,20.45,20.45,0,0,0-.78-8,22.11,22.11,0,0,0-9.79,4.51,14.75,14.75,0,0,0-.67-1.55c3.82-1.89,6.2-5.61,7.66-9.09a23.53,23.53,0,0,0,10.8,8.09,32.87,32.87,0,0,0,1.38-6.1,6.91,6.91,0,0,0,2.61.85,21.58,21.58,0,0,0,1.48,3.86,27.2,27.2,0,0,0,8.4-6.6c-2.29,8.13,1.71,15.56,1.71,15.56a28.84,28.84,0,0,0,7.55-5.61c2.48,4,7.26,5.68,11.12,6.42a21.65,21.65,0,0,0-5.45,9.5,25,25,0,0,0,9.49.55,20.47,20.47,0,0,0-1.21,10.66c7-.47,11.56-3.15,14.51-6.42a21,21,0,0,0-.09,6.87,23.24,23.24,0,0,0,9.65-2.61,20.91,20.91,0,0,0,0,6.65,27.24,27.24,0,0,0,4.27-.62c-3.17,3-2.17,7.76-2.17,7.76l.28,0a14.32,14.32,0,0,0-2.88,4c-2.47-10-13.68-11.85-13.68-11.85-1.85,6.22-1.19,11.13.53,14.92-5.22-5.66-15.74-5.39-15.74-5.39a12.57,12.57,0,0,0,1.84,8.49c-6.68-1.24-12.45,3.2-12.45,3.2,3.09,5.24,6.9,7.85,10.59,9-15.08-.13-14.36,14.31-14.36,14.31,6.35.46,10.53-1.65,13.27-4.36-5.13,7.6,0,16.39,0,16.39,8-3.43,11-9,11.93-13.87a16.73,16.73,0,0,0,1.85,4.32,19.26,19.26,0,0,0,5.86-4.31,39.28,39.28,0,0,1-1.38,4.19,51.33,51.33,0,0,1-7.37,12.87C161.31,225.64,159.7,227.49,158,229.28ZM90,212.66l0,.07-3.36-4.64a18.49,18.49,0,0,0,2.85.8,28.25,28.25,0,0,0,.69-2.9c4.62,8.64,14.81,9.52,14.81,9.52.58-6.78-.87-11.24-3.13-14.15,5.93,1.95,12.86.37,12.86.37-.82-9.51-9.24-12.26-15.21-13a20.28,20.28,0,0,0,6-9.47c-8.73-3.4-15.16-1.4-19.52,1.68,3.67-6.14,4.12-13.85,4.12-13.85-.26-.05-.51-.08-.77-.12a14.8,14.8,0,0,0,4.45-3.79c1.93,8.75,11.33,11.93,11.33,11.93a27.91,27.91,0,0,0,1.37-3.39q2,2.73,3.71,5.57c1.08,1.69,2,3.46,3,5.2.47.88.88,1.79,1.35,2.68l.68,1.33.6,1.37,1.22,2.73,1.07,2.79c.79,1.84,1.29,3.75,1.93,5.62a91.59,91.59,0,0,1,2.62,11.64c.1.55.17,1.11.26,1.67-.06,2.1-.65,21.12-3.24,31.89,0,0-.37,1.41-2.62-1.72s-1.75-5.5-14.25-15A110.9,110.9,0,0,1,90,212.66Zm17.07-51.83c2.33,1.57,4,1.87,5.17,1.73,2,8.64,11.29,11.78,11.29,11.78A27.4,27.4,0,0,0,125,170.5l3,1.74s0,1.49,0,3.72l-.92,9.93c-.36,4-.75,8-1.14,12.05-.06-.21-.11-.43-.18-.64-.71-2-1.29-4.13-2.17-6.08l-1.25-3-1.43-2.87A66.83,66.83,0,0,0,114,174.6a65.81,65.81,0,0,0-6.57-7.27A18.5,18.5,0,0,0,107.07,160.83Zm108.37,53.06a14,14,0,0,0-4.35-1.17l2.21-.89A21.23,21.23,0,0,0,215.44,213.89ZM66.26,212.43c-1.29-.17-2.6-.3-3.9-.37a19.76,19.76,0,0,0-.8-8.77,21.59,21.59,0,0,0,10.67,4.48,24.13,24.13,0,0,0-1-10.18,17.75,17.75,0,0,0,8.83,6.65c.33.3.66.59,1,.85.39.77.77,1.54,1.17,2.3a105.17,105.17,0,0,0,7.56,11.9c.56.77,1.14,1.52,1.73,2.28a95,95,0,0,0-11.35-5.33A64.69,64.69,0,0,0,66.26,212.43Zm100,13.37a39.83,39.83,0,0,0,6.93-14,32,32,0,0,0,1-8.78,9.21,9.21,0,0,0,.73,1.44,13.29,13.29,0,0,0,2.05-1.25,10.38,10.38,0,0,0,1.35,3.62,13.09,13.09,0,0,0,2.25-1.4,23.19,23.19,0,0,0,1.3,7.72c5.73-2.25,9.16-5.11,11.14-8.09a10.34,10.34,0,0,0,1.31,3.37,11.72,11.72,0,0,0,3.66-2.72,22.94,22.94,0,0,0,1.27,6.57c5.11-2,8.39-4.5,10.45-7.13a15.54,15.54,0,0,0,2.09,1,16.91,16.91,0,0,0-1.77,1.11,27.26,27.26,0,0,0,2.43,3.52q-4,1.08-7.93,2.22c-5.63,1.62-11.24,3.31-16.81,5.14s-11.15,3.67-16.66,5.74Q168.64,224.85,166.24,225.8ZM93.7,230.94a24.29,24.29,0,0,0-2.84.94,23.81,23.81,0,0,0-2.67,1.3l-.75.49-.23-.16a23.79,23.79,0,0,0,1.85-7.66c-7.28-.23-12,1.53-15.09,4.07q-.38-.42-.75-.8a20,20,0,0,0-.12-11.74q2.79,1.14,5.52,2.42a137.57,137.57,0,0,1,18,10.64A23.44,23.44,0,0,0,93.7,230.94Zm79.26.43a28,28,0,0,0-4.11-.49l4.25-2c5.28-2.4,10.6-4.78,16-7.06,3.43-1.45,6.88-2.87,10.32-4.3a23.13,23.13,0,0,0,5,5.65c-8.11-2.82-15.65,2.89-15.65,2.89.35.6.71,1.17,1.08,1.71a20.18,20.18,0,0,0-11.52.81,26.38,26.38,0,0,0,2,5.12l-.62-.29a16.89,16.89,0,0,0-2.18-.86A29.2,29.2,0,0,0,173,231.37Z"/><path class="cls-10" d="M164.79,351.36a11.8,11.8,0,0,1-.94-3.71,15.82,15.82,0,0,1,1.21-7.42l.3-.67a8.23,8.23,0,0,1-3.43.43,8.4,8.4,0,0,1-1.75-.37c-.78.89-1.58,2.67-1.31,6.26a8.78,8.78,0,0,0,4.21,7.3l2.9.25A11.12,11.12,0,0,1,164.79,351.36Z"/><path class="cls-10" d="M213.88,306.5s-3.25-18.5-22.75-13.12a27.12,27.12,0,0,0-2.58.85c-5.41,2.09-9.46,6.27-9.94,12.21a20.55,20.55,0,0,0,.56,6.2c.87,3.86,3.36,6,5.79,8.92a42.66,42.66,0,0,1,5.34,8c1.07,2.12,2.25,4.68,2.33,7.12s1.09,12-3.85,11.35c2.37-.12,1.64-7.26,1.6-8.48a17.27,17.27,0,0,0-8.29-13.93c-3.91-2.37-7.65-4.19-11-7.45-5-4.79-.45-15.25-.07-16.93s-.87-.57-.87-.57l-4.5,3.88v-5.25c0-1.5-1,0-1,0L161.38,305c-1,0-8.37,3.88-11.75,6.63s-1.5,3.88-1.12,4.13,4,3.25,4,3.25l4.13,2.88s1,3.38,1.75,5.63-1,1.75-1,1.75a38.83,38.83,0,0,0-5.12-1.87,4.15,4.15,0,0,0-4.61,1.63s-.64,3.38,0,5.13,3.06,0,3.37-1.06a1.51,1.51,0,0,1,1.94-1.09,2.18,2.18,0,0,1,.79.9c1.24,2.08,4.78,6.35,7.76,5.87a1.8,1.8,0,0,0-.4.14c.3,0,.61.08.92.1.7.06,1.41.1,2.13.1.48,0,1,0,1.45,0l.36-.58a7.8,7.8,0,0,1,1.25-1.51,7.68,7.68,0,0,1,3.45-1.76,9.65,9.65,0,0,1,3.76,0,12.26,12.26,0,0,1,3.46,1.21,12.59,12.59,0,0,0-7-.3,6.79,6.79,0,0,0-2.82,1.71,6.89,6.89,0,0,0-1,1.33,6.22,6.22,0,0,0-.41.73l-.31.79a16,16,0,0,0-1.06,6.77,12.11,12.11,0,0,0,.74,3.31,9.39,9.39,0,0,0,1.71,2.85l1.16,1.28-1.63-.26c-1.6-.26-3.19-.55-4.78-.84h0c-1.35,0-3.06,0-4.25-.11-2.25-.12-2.75,2.75-2.75,2.75l-1.75,1.25h30.88l.5-2c9.75-.5,13.75-2.12,18.75-10.12,2.65-4.24,2.59-9.84.57-14.32-2.18-4.83-6.26-8.59-7.51-13.88a7.87,7.87,0,0,1,.56-5.83c1.85-3.09,7-4.75,10.2-3a8.63,8.63,0,0,1,4.07,5.83c.5,2.5,1.37,1.5,1.37,1.5C214.88,311.88,213.88,306.5,213.88,306.5Zm-55.5,7.38a1.88,1.88,0,1,1,1.88-1.87A1.87,1.87,0,0,1,158.38,313.88Z"/></g></g></svg>