<?xml version="1.0" encoding="utf-8"?>
<!-- Generator: Adobe Illustrator 21.1.0, SVG Export Plug-In . SVG Version: 6.00 Build 0)  -->
<svg version="1.1" id="Layer_1" xmlns="http://www.w3.org/2000/svg" xmlns:xlink="http://www.w3.org/1999/xlink" x="0px" y="0px"
	 viewBox="0 0 1161.1 238.3" style="enable-background:new 0 0 1161.1 238.3;" xml:space="preserve">
<style type="text/css">
	.st0{enable-background:new    ;}
	.st1{fill:#41494D;}
	.st2{fill:#424A4D;}
</style>
<title>la-rivera-logo_2</title>
<g id="Layer_2">
	<g id="Layer_1-2">
		<g class="st0">
			<path class="st1" d="M10.7,183.7v-8.9c4.4-0.3,7.6-1.2,9.6-2.8c1.9-1.6,3.2-4,3.7-7.2c0.5-3.2,0.8-7.3,0.8-12.3V68.8
				c0-3,0.1-5.8,0.2-8.6c0.1-2.7,0.3-5.1,0.4-7.1c-2.3,0.1-4.8,0.3-7.4,0.4c-2.7,0.1-5.1,0.3-7.2,0.4V42.8h49.5v8.9
				c-4.3,0.1-7.4,1-9.5,2.7c-2,1.7-3.3,4.1-3.8,7.2c-0.5,3.2-0.8,7.3-0.8,12.4v83.3c0,3.6,0,6.8-0.1,9.6c-0.1,2.8-0.2,5-0.5,6.7
				l34-0.4c8.3-0.1,14.7-2.8,19.1-8.2c4.4-5.3,6.6-13.7,6.6-25.3h9.1l-1.2,43.9H10.7z"/>
		</g>
		<g class="st0">
			<path class="st1" d="M189.2,183.7c-0.3-2.1-0.5-4-0.6-5.6c-0.1-1.6-0.3-3.3-0.6-5c-4.6,4.6-9.5,8-14.7,10.4
				c-5.2,2.3-10.7,3.5-16.3,3.5c-9.7,0-16.9-2.4-21.8-7.1c-4.9-4.8-7.3-10.7-7.3-17.8c0-6.2,1.8-11.5,5.4-16.1
				c3.6-4.6,8.4-8.3,14.3-11.2c5.9-2.9,12.3-5,19.3-6.4c7-1.4,13.8-2.1,20.5-2.1v-11.9c0-4.3-0.4-8.3-1.2-12
				c-0.8-3.7-2.5-6.7-4.9-9.1c-2.5-2.3-6.3-3.5-11.6-3.5c-3.5-0.1-7,0.5-10.5,1.9c-3.5,1.4-6.2,3.7-8.1,6.9c1.1,1.1,1.8,2.3,2.1,3.7
				c0.3,1.4,0.5,2.7,0.5,3.9c0,1.9-0.8,4-2.4,6.3c-1.6,2.4-4.4,3.5-8.3,3.3c-3.2,0-5.7-1.1-7.3-3.3c-1.7-2.2-2.5-4.8-2.5-7.8
				c0-4.8,1.8-9.1,5.3-12.9c3.6-3.8,8.4-6.7,14.6-8.9c6.2-2.1,13.1-3.2,20.7-3.2c11.5,0,20.2,3,25.9,9.1c5.7,6,8.6,15.6,8.6,28.6
				c0,4.8,0,9.5,0,13.9c0,4.4,0,8.9-0.1,13.3c-0.1,4.4-0.1,9.1-0.1,14.1c0,2-0.1,4.3-0.2,6.8c-0.1,2.6-0.3,5.2-0.6,8.1
				c2.3-0.1,4.6-0.3,7-0.4c2.4-0.1,4.7-0.2,6.8-0.2v10.7H189.2z M187.4,135.4c-4.3,0.3-8.7,0.9-13.2,1.8c-4.5,0.9-8.6,2.3-12.2,4.2
				c-3.6,1.9-6.5,4.3-8.8,7.2c-2.2,3-3.3,6.5-3.3,10.7c0.3,4.6,1.8,7.9,4.5,10.1c2.7,2.1,6,3.2,9.8,3.2c4.7,0,8.9-0.9,12.5-2.7
				c3.6-1.8,7.2-4.3,10.7-7.5c-0.1-1.5-0.2-3-0.2-4.5c0-1.5,0-3.2,0-4.9c0-1.2,0-3.5,0.1-6.7C187.4,142.9,187.4,139.3,187.4,135.4z"
				/>
			<path class="st1" d="M289.3,183.7v-8.9c4.4-0.3,7.6-1.2,9.6-2.8c1.9-1.6,3.2-4,3.7-7.2c0.5-3.2,0.8-7.3,0.8-12.3V68.8
				c0-3,0.1-5.8,0.2-8.6c0.1-2.7,0.3-5.1,0.4-7.1c-2.3,0.1-4.8,0.3-7.4,0.4c-2.7,0.1-5.1,0.3-7.2,0.4V42.8
				c8.2-0.1,16.4-0.2,24.8-0.3c8.3-0.1,16.7,0,25.2,0.1c12.6,0,23,1.4,31.2,4.3c8.2,2.9,14.3,7.1,18.4,12.8
				c4.1,5.6,6.1,12.8,5.9,21.3c0.1,5.4-0.9,10.7-3.2,16c-2.3,5.3-6.1,10-11.5,14.2c-5.4,4.2-12.8,7.3-22.1,9.5
				c2.7,1.6,5.1,3.8,7.2,6.6c2.1,2.8,4.4,6,6.6,9.5l12.3,18.9c2.5,4,4.9,7.4,7,10.3c2.1,2.8,4.6,5,7.2,6.5c2.7,1.5,5.9,2.3,9.7,2.3
				v8.9h-28c-3.5-3-6.5-6.1-9-9.6c-2.5-3.4-5.1-7.3-8-11.6L349.3,140c-1.7-2.7-3.6-5.6-5.5-8.7c-1.9-3.1-4.1-5.7-6.3-7.9
				c-2.1,0-4.3,0-6.3,0c-2.1,0-4.2,0-6.3,0v33.2c0,3.6,0,6.9-0.1,9.8c-0.1,2.9-0.2,5.2-0.5,6.9c1.6-0.1,3.3-0.2,5.1-0.3
				c1.8-0.1,3.6-0.2,5.4-0.3c1.8-0.1,3.4-0.2,4.7-0.2v11.1H289.3z M336.4,113.7c7.4-0.1,13.7-1.3,18.9-3.5
				c5.2-2.2,9.3-5.6,12.1-10.3c2.8-4.6,4.2-10.6,4.2-18c0-5.5-0.8-10.1-2.4-13.9c-1.6-3.8-3.9-6.8-6.8-9.2c-3-2.3-6.5-4-10.6-5
				c-4.1-1-8.5-1.5-13.2-1.5c-4.3,0-7.4,0.8-9.4,2.4c-1.9,1.6-3.2,4-3.7,7c-0.5,3.1-0.8,7-0.8,11.9V113c2,0.1,3.9,0.3,5.7,0.5
				S334.2,113.8,336.4,113.7z"/>
		</g>
		<g class="st0">
			<path class="st1" d="M417.5,175.3c4,0,6.8-0.9,8.5-2.8c1.6-1.9,2.6-4.5,2.9-7.9c0.3-3.4,0.5-7.2,0.5-11.7v-41.7
				c0-2.3,0.1-4.6,0.2-6.9c0.1-2.3,0.3-4.9,0.6-7.5c-2.3,0.1-4.7,0.2-7.2,0.3c-2.6,0.1-4.9,0.2-7,0.3V86.7c6,0,10.8-0.3,14.4-0.9
				c3.6-0.6,6.3-1.3,8.3-2.1c1.9-0.8,3.4-1.7,4.3-2.6h7.7v77.7c0,2.4-0.1,4.9-0.2,7.3c-0.1,2.5-0.3,5-0.6,7.5
				c2.1-0.1,4.3-0.2,6.5-0.3c2.2-0.1,4.3-0.2,6.1-0.3v10.7h-44.9V175.3z M438.9,62.5c-3.5,0-6.4-1.3-8.9-3.9
				c-2.4-2.6-3.6-5.8-3.6-9.6c0-3.8,1.3-6.9,3.8-9.6c2.5-2.6,5.4-3.9,8.7-3.9c3.5,0,6.4,1.3,8.8,3.9c2.3,2.6,3.5,5.8,3.5,9.6
				c0,3.8-1.2,6.9-3.5,9.6C445.3,61.2,442.4,62.5,438.9,62.5z"/>
		</g>
		<g class="st0">
			<path class="st1" d="M514.8,184.3l-29.8-67c-2-4.6-3.5-8.3-4.5-11.3c-1-3-1.7-5.5-2-7.5c-0.3-2.1-0.6-3.9-0.9-5.3l-8.3,0.6V83
				h40.5v8.3c-3.6,0.1-6,1.1-7,3c-1.1,1.9-1.3,4.3-0.7,7.3s1.6,6.3,2.9,9.8l13.9,32.2c1.1,2.4,2.1,4.9,3.1,7.4c1,2.6,2,5.2,3.1,7.9
				h0.2c0.8-2.3,1.6-4.7,2.5-7.1c0.9-2.5,1.7-4.9,2.5-7.1L544,107c1.1-3.2,2.2-6,3.3-8.3c1.1-2.3,2.1-4.2,2.9-5.8l-12.9,0.8V83h34
				v8.3c-3,0.3-5.5,1.5-7.7,3.8c-2.1,2.3-4.1,5.4-5.9,9.3c-1.8,3.9-3.7,8.3-5.7,13.1l-26.2,66.8H514.8z"/>
		</g>
		<g class="st0">
			<path class="st1" d="M627.5,186.9c-9.4,0-17.8-2.2-25.3-6.5c-7.4-4.4-13.3-10.5-17.6-18.5c-4.3-8-6.4-17.4-6.4-28.3
				c0-9.4,2.1-18.2,6.3-26.4c4.2-8.2,10.2-14.8,17.8-19.8c7.6-5,16.5-7.5,26.6-7.5c5.6,0,11,0.9,16,2.6c5,1.7,9.5,4.5,13.5,8.2
				c4,3.7,7.1,8.5,9.4,14.3c2.3,5.8,3.4,12.9,3.4,21.2l-69.3,1.2c0,9.1,1,17.2,3.1,24.4c2.1,7.1,5.5,12.6,10.2,16.5
				c4.7,3.9,10.8,5.8,18.3,5.8c3.6,0,7.5-0.6,11.6-1.9c4.1-1.3,8-3.1,11.7-5.5c3.7-2.4,6.8-5.3,9.4-8.7l6.2,5.4
				c-4,6-8.7,10.8-13.9,14.2c-5.2,3.4-10.6,5.8-16,7.2S632.1,186.9,627.5,186.9z M602.7,116.9h46.5c0-5.1-0.7-9.7-2.1-13.8
				c-1.4-4.1-3.6-7.3-6.5-9.8c-3-2.4-6.7-3.6-11.3-3.6c-7.1,0-13,2.2-17.5,6.7C607.2,100.9,604.2,107.7,602.7,116.9z"/>
		</g>
		<g class="st0">
			<path class="st1" d="M688.1,175.3c4,0,6.8-0.9,8.5-2.8c1.6-1.9,2.6-4.5,2.9-7.9c0.3-3.4,0.5-7.2,0.5-11.7V111
				c0-2.1,0-4.5,0.1-6.9c0.1-2.5,0.3-4.9,0.7-7.3c-2.3,0.1-4.7,0.2-7.2,0.3c-2.6,0.1-4.9,0.2-7,0.3V86.7h6.8c5.6,0,9.9-0.6,12.9-1.8
				c3-1.2,5.1-2.5,6.4-3.8h7.2c0.3,1.9,0.5,4.5,0.6,7.9c0.1,3.4,0.3,7.1,0.4,11.3c2.5-3.8,5.5-7.1,8.9-10.2c3.4-3,7-5.5,11-7.3
				c4-1.9,8.1-2.8,12.4-2.8c4.2,0,7.8,1.1,10.8,3.3c3,2.2,4.5,5.8,4.5,10.8c0,1.3-0.4,2.9-1.1,4.6c-0.7,1.7-1.9,3.3-3.6,4.5
				c-1.7,1.3-3.9,1.9-6.7,1.9c-2.8-0.1-5.3-1.2-7.3-3.2c-2.1-2-3.1-4.8-2.9-8.3c-3.2,0-6.4,1-9.7,2.9c-3.2,1.9-6.2,4.5-9,7.8
				c-2.8,3.2-5.1,6.7-6.9,10.5v44.1c0,2.4,0,4.9-0.1,7.3c-0.1,2.5-0.3,5-0.7,7.5c2.1-0.1,4.4-0.2,6.6-0.3c2.3-0.1,4.4-0.2,6.2-0.3
				v10.7h-45.1V175.3z"/>
		</g>
		<g class="st0">
			<path class="st1" d="M836.7,183.7c-0.3-2.1-0.5-4-0.6-5.6c-0.1-1.6-0.3-3.3-0.6-5c-4.6,4.6-9.5,8-14.7,10.4
				c-5.2,2.3-10.7,3.5-16.3,3.5c-9.7,0-16.9-2.4-21.8-7.1c-4.9-4.8-7.3-10.7-7.3-17.8c0-6.2,1.8-11.5,5.4-16.1
				c3.6-4.6,8.4-8.3,14.3-11.2c5.9-2.9,12.3-5,19.3-6.4c7-1.4,13.8-2.1,20.5-2.1v-11.9c0-4.3-0.4-8.3-1.2-12
				c-0.8-3.7-2.5-6.7-4.9-9.1c-2.5-2.3-6.3-3.5-11.6-3.5c-3.5-0.1-7,0.5-10.5,1.9c-3.5,1.4-6.2,3.7-8.1,6.9c1.1,1.1,1.8,2.3,2.1,3.7
				c0.3,1.4,0.5,2.7,0.5,3.9c0,1.9-0.8,4-2.4,6.3c-1.6,2.4-4.4,3.5-8.3,3.3c-3.2,0-5.7-1.1-7.3-3.3c-1.7-2.2-2.5-4.8-2.5-7.8
				c0-4.8,1.8-9.1,5.3-12.9c3.6-3.8,8.4-6.7,14.6-8.9c6.2-2.1,13.1-3.2,20.7-3.2c11.5,0,20.2,3,25.9,9.1c5.7,6,8.6,15.6,8.6,28.6
				c0,4.8,0,9.5,0,13.9c0,4.4,0,8.9-0.1,13.3c-0.1,4.4-0.1,9.1-0.1,14.1c0,2-0.1,4.3-0.2,6.8c-0.1,2.6-0.3,5.2-0.6,8.1
				c2.3-0.1,4.6-0.3,7-0.4c2.4-0.1,4.7-0.2,6.8-0.2v10.7H836.7z M834.9,135.4c-4.3,0.3-8.7,0.9-13.2,1.8c-4.5,0.9-8.6,2.3-12.2,4.2
				c-3.6,1.9-6.5,4.3-8.8,7.2c-2.2,3-3.3,6.5-3.3,10.7c0.3,4.6,1.8,7.9,4.5,10.1c2.8,2.1,6,3.2,9.8,3.2c4.7,0,8.9-0.9,12.5-2.7
				c3.6-1.8,7.2-4.3,10.7-7.5c-0.1-1.5-0.2-3-0.2-4.5c0-1.5,0-3.2,0-4.9c0-1.2,0-3.5,0.1-6.7C834.8,142.9,834.9,139.3,834.9,135.4z"
				/>
		</g>
	</g>
	<g id="Layer_5">
		<path class="st2" d="M1148.7,83.6c-5.5-7.7-12.9-13.9-21.3-18.2c-10.8-5.3-23-7.1-35-6.5c-8,0.5-16.1,2.1-22.7,6.7
			c-7.7,5.5-12,14.4-13.9,23.4c-1,4.5-1.4,9-1.4,13.6c0,1.4,1.5,9,0.7,9.9c9.4-10.6,25.6-11.5,36.2-2.1c10.6,9.4,11.5,25.6,2.1,36.2
			c-4.9,5.4-11.8,8.6-19.1,8.6c-6.4,0-12.5-2.4-17.2-6.7l0,0c-15.4-11.8-26.1-34.9-30.2-58.7c-2.8-15.9-3.3-32.3-3.8-48.5
			c-0.2-7.6-0.3-15.2-0.3-22.8c0-5.5,1.3-13.4-0.6-18.6c-8.8,14.2-16.9,26-35.4,27.1c-11.5,0.7-22.2-12.8-27.5-21.4
			c-0.9-1.5-2.2-3.2-3.9-2.9c2,21.1,2.2,42.9-0.5,64c-0.4,3.7-6.3,27.8-6.7,37.1c-0.2,5,0.7,12.1,4.3,16c1.4,1.4,3.1,2.5,4.9,3.4
			c7.8,4,16.2,8.9,24.9,10.6c0.3-4.4,0.8-10.9-1.5-14.7s-7.6-6-10.7-8.9c-5.2-4.8-3-10.4-3-21.9c0-3.2,1.9-11.6,4.3-4.3
			c1.4,4.4,6.6,6.4,11.2,6.8c8.6,0.7,17.2-1.9,24-7.3c0.9-0.7,1.9-1.5,3-1.2c1.3,0.4,1.6,1.9,1.7,3.3c0.4,4.4,0.5,8.8,0.5,13.2
			c0.1,2.7-0.3,5.3-1.2,7.9c-4,9.6-14.1,13.5-16.5,24.7c-0.3,1.3,0,3.3,1.3,3.3c0.4,0,0.8-0.2,1.1-0.4c6.1-3.2,13-4.7,19.1-7.8
			c3.1-1.4,5.9-3.5,8.3-6c1.1-1.3,3.6-8.5,5.9-6.7c-0.1,10.3-4.1,20.5-9.6,29.1c0,0-7,15.9-33,18.2c-12,1-21.6-6.8-28.1-16.1
			c-2.9-4.2-5.4-8.7-7.4-13.4c-1.7-3.8-1.7-8.3-4.4-11.7c-1.6,3.5-1,8.8-1.5,12.8c-0.7,5.9-1.9,11.8-3,17.7
			c-2.2,11.3-4.5,22.7-4.1,34.3c-0.1,1.6,0.3,3.2,1.2,4.6c1.4,1.7,4.1,1.9,6.2,1.1c2-1,3.9-2.3,5.4-3.9c9.6-8.4,21.7-13.9,34.6-13.9
			c16.5,0,28.3,5.9,40.9,15.8c1.4,1.1,2.9,2.2,4.6,2.1s3.2-1.6,4.6-2.9c9.1-8.3,22.7-5.5,33.5-3.3c14.6,3.1,29.6,3.6,44.3,1.4
			c3.5-0.4,6.9-1.3,10.1-2.5c3.9-1.7,7.6-4,10.8-6.9c16.8-14.1,27.3-35.9,26.3-57.9C1160.4,105.8,1156.1,93.7,1148.7,83.6z
			 M967.7,64.6c-2.9,0-5.2-4.7-5.2-10.4s2.3-10.4,5.2-10.4s5.2,4.7,5.2,10.4S970.5,64.6,967.7,64.6L967.7,64.6z M1009,64.6
			c-2.8,0-5.2-4.7-5.2-10.4s2.3-10.4,5.2-10.4s5.2,4.7,5.2,10.4S1011.9,64.6,1009,64.6L1009,64.6z"/>
	</g>
</g>
</svg>
