<svg xmlns="http://www.w3.org/2000/svg" viewBox="0 0 1119.55 288.32"><defs><style>.cls-1{font-size:201.32px;fill:#41494d;font-family:Lora-Medium, Lora;}.cls-2{letter-spacing:0.01em;}.cls-3{letter-spacing:0em;}.cls-4{letter-spacing:-0.01em;}.cls-5{letter-spacing:-0.01em;}.cls-6{fill:#424a4d;}</style></defs><title>la-rivera-logo_4</title><g id="Layer_2" data-name="Layer 2"><g id="Layer_1-2" data-name="Layer 1"><text class="cls-1" transform="translate(0 233.77)"><tspan class="cls-2">L</tspan><tspan x="121.19" y="0">a R</tspan><tspan class="cls-3" x="408.87" y="0">i</tspan><tspan class="cls-4" x="468.06" y="0">v</tspan><tspan x="570.53" y="0">e</tspan><tspan class="cls-5" x="679.44" y="0">r</tspan><tspan x="768.63" y="0">a</tspan></text><path class="cls-6" d="M1098.45,132a77.28,77.28,0,0,1-33.24,11.49c-.62.06-2.08-9.13-2.2-9.93a69.78,69.78,0,0,1-.77-16.16c.5-5.65,2.62-10.84,4.3-16.21l.26-.84c-3.29,6.18-6.44,12.45-8.49,19.36s-1.8,14.43-.69,21.54c2.19,14.51,10.23,26.78,13.2,39.7a65.82,65.82,0,0,1-3.23,39.33c-5.13,12.25-15.33,23.11-29.19,26.17h44.36V144.07a70.5,70.5,0,0,0,8.41-4,66.53,66.53,0,0,0,12.48-9.05,62.77,62.77,0,0,0,10.05-11.56c-3.81,3.41-7.44,6.88-11.49,9.83C1101,130.24,1099.71,131.09,1098.45,132Z"/><path class="cls-6" d="M1037.84,200.33a44.72,44.72,0,0,0,1.86-6.76,87.27,87.27,0,0,0,1.17-20.21,146.79,146.79,0,0,0-7.38-39.49c-4.8-12.41-13-23-22.92-31.51.19.16,3.6-7.15,3.85-7.79a37.52,37.52,0,0,0,2.63-9.16c.3-3-.26-5.88-.53-8.86-.11-1.22-.24-2.41-.44-3.63a10.17,10.17,0,0,1-.32-2.34c.38-4.43,2.19-7.77,3.88-11.9,6.08-14.81,19.52-26.15,34.52-31.25,17.15-5.83,33.8-2,48.43,8.14a138.58,138.58,0,0,1,14.77,12.16c.58.54,1.85,1.32,2.19,2-4.62-9.77-11.38-18.83-20.78-25.39a49.43,49.43,0,0,0-16-7.17V0H920.23V240.08c3.9-7.31,15.6-6.82,15.6-6.82-4.14-9.26,3.33-23,3.33-23l-.1-.16a23.87,23.87,0,0,0,14.42,3.63c-6.92-1.16-13.18-4.77-16.85-10s-4.2-12.47-.6-17.15c1.72-2.33,4.83-4.33,7.23-7s5.15-5,7.29-7.89a29.91,29.91,0,0,0,5.09-9.65,22.67,22.67,0,0,0,.78-5.4,9.38,9.38,0,0,0-.77-3.89c7.49.43,14.93.27,20.26-1.26,0,0-24.85,2-35.82-6.26-14.11-10.64-13.34-23.71-13.34-23.71s11-28,36.37-29.6c0,0,11.8-2,20,0,0,0,4.44-17.91,29.61-20.28a45,45,0,0,1,2.15,13.55,50.15,50.15,0,0,1-2.53,8.11,33.5,33.5,0,0,1-4.89,8.71l-.71.91,1,1c9.33,8.82,17.5,19.52,21.91,31.5,2.1,5.92,3.35,12.55,4.57,18.92a150.42,150.42,0,0,1,2.58,19.38c.68,12.84-.2,26.43-7.7,36.92-7.31,10.41-20.27,17.12-33.59,15.69,13.09,2.88,27.6-3,35.89-14a38.81,38.81,0,0,0,4.78-7.82c7.45,21.6-2.84,35.26-10.58,42h4.11C1038,238.11,1047,222.93,1037.84,200.33Z"/><path class="cls-6" d="M976.62,235.4a17.54,17.54,0,0,1,5.87-2,11.77,11.77,0,0,1,2.12-1.53c.24,0,.42-.11.67-.12v-.26a17.82,17.82,0,0,1,2.89-1.2s-3.47-4.75,1.46-9.32,13-9.5,15-11.15,6.58-5.48,7.31-7.86,2.38-4.39-3.47-7.68-11.15-6.94-18.82-7.49c0,0,1.64-9.87-1.1-15.35S983.4,164,983.4,164a4,4,0,0,0-5.3-.91c-3.29,1.83-9.14,5.67-9.14,5.67s-1.64.91,0,2.74,10.42,12.06,10.42,12.06-13.71-2.38-17.73-.73-10.78,6-7.13,12.79S969,212.05,971.16,213c0,0-7.86,2.56-12.61,1.83,0,0-1.46,5.67,4,13.52,4.36,6.25,6.75,8.21,8.47,9.3a39.69,39.69,0,0,0-3.72,8.79h3.14C970.77,245.14,972.35,239.32,976.62,235.4Z"/><path class="cls-6" d="M961.29,117.16a4.22,4.22,0,0,1-3.16-1.46,6.33,6.33,0,0,0-.13.66,6.4,6.4,0,1,0,6.4-6.4h0a4.24,4.24,0,0,1-3.08,7.19Z"/></g></g></svg>