<svg xmlns="http://www.w3.org/2000/svg" viewBox="0 0 1119.55 283.93"><defs><style>.cls-1{font-size:201.32px;fill:#41494d;font-family:Lora-Medium, Lora;}.cls-2{letter-spacing:0.01em;}.cls-3{letter-spacing:0em;}.cls-4{letter-spacing:-0.01em;}.cls-5{letter-spacing:-0.01em;}.cls-6{fill:#424a4d;}</style></defs><title>la-rivera-logo_3</title><g id="Layer_2" data-name="Layer 2"><g id="Layer_1-2" data-name="Layer 1"><text class="cls-1" transform="translate(0 229.38)"><tspan class="cls-2">L</tspan><tspan x="121.19" y="0">a R</tspan><tspan class="cls-3" x="408.87" y="0">i</tspan><tspan class="cls-4" x="468.06" y="0">v</tspan><tspan x="570.53" y="0">e</tspan><tspan class="cls-5" x="679.44" y="0">r</tspan><tspan x="768.63" y="0">a</tspan></text><path class="cls-6" d="M1101.05,141.7a67.75,67.75,0,0,1-29.14,10.07c-.55,0-1.82-8-1.93-8.71a61.17,61.17,0,0,1-.67-14.17c.44-5,2.3-9.5,3.77-14.21l.23-.74a91.87,91.87,0,0,0-7.44,17,45.21,45.21,0,0,0-.61,18.88c1.92,12.72,9,23.48,11.57,34.8a57.7,57.7,0,0,1-2.83,34.48c-4.5,10.74-13.44,20.26-25.59,22.94h38.89V152.3a61.8,61.8,0,0,0,7.37-3.5,58.33,58.33,0,0,0,10.94-7.93,55,55,0,0,0,8.81-10.14c-3.34,3-6.52,6-10.07,8.62C1103.28,140.17,1102.16,140.93,1101.05,141.7Z"/><path class="cls-6" d="M1047.91,201.63a39.2,39.2,0,0,0,1.63-5.92,76.5,76.5,0,0,0,1-17.72,128.69,128.69,0,0,0-6.47-34.62A70.1,70.1,0,0,0,1024,115.73c.16.14,3.16-6.27,3.37-6.83a32.89,32.89,0,0,0,2.31-8c.26-2.62-.23-5.15-.46-7.76-.09-1.07-.21-2.11-.38-3.18a8.92,8.92,0,0,1-.28-2.05c.33-3.89,1.92-6.81,3.4-10.43,5.33-13,17.11-22.92,30.26-27.39,15-5.11,29.63-1.8,42.46,7.14a121.49,121.49,0,0,1,12.95,10.66c.51.47,1.62,1.16,1.92,1.78a55.86,55.86,0,0,0-18.22-22.26,43.34,43.34,0,0,0-14-6.28V0H944.81V236.47c3.42-6.41,13.67-6,13.67-6-3.63-8.12,2.92-20.18,2.92-20.18l-.09-.14A20.92,20.92,0,0,0,974,213.34c-6.07-1-11.56-4.19-14.77-8.81s-3.68-10.93-.52-15c1.51-2,4.23-3.8,6.34-6.16s4.51-4.36,6.39-6.91a26.22,26.22,0,0,0,4.46-8.46,19.88,19.88,0,0,0,.68-4.73,8.23,8.23,0,0,0-.68-3.41c6.57.38,13.09.23,17.76-1.11,0,0-21.79,1.76-31.4-5.49-12.37-9.33-11.7-20.78-11.7-20.78s9.61-24.51,31.88-26c0,0,10.34-1.76,17.51,0,0,0,3.89-15.7,26-17.78a39.46,39.46,0,0,1,1.89,11.88,44,44,0,0,1-2.22,7.11,29.37,29.37,0,0,1-4.29,7.64l-.62.8.91.86c8.18,7.74,15.34,17.11,19.2,27.62a115.25,115.25,0,0,1,4,16.58,131.87,131.87,0,0,1,2.26,17c.6,11.25-.18,23.17-6.75,32.36-6.41,9.13-17.77,15-29.45,13.75,11.47,2.52,24.2-2.66,31.47-12.24a34,34,0,0,0,4.19-6.86c6.53,18.93-2.49,30.92-9.28,36.83h3.6C1048,234.74,1056,221.43,1047.91,201.63Z"/><path class="cls-6" d="M994.25,232.37a15.38,15.38,0,0,1,5.15-1.72,10.32,10.32,0,0,1,1.85-1.34c.21,0,.37-.1.58-.1V229a15.62,15.62,0,0,1,2.53-1.05s-3-4.17,1.28-8.17,11.37-8.33,13.14-9.77,5.77-4.81,6.41-6.89,2.08-3.84-3-6.73-9.77-6.09-16.5-6.57c0,0,1.44-8.65-1-13.46s-4.49-6.57-4.49-6.57a3.51,3.51,0,0,0-4.65-.8c-2.88,1.6-8,5-8,5s-1.44.8,0,2.4,9.13,10.57,9.13,10.57-12-2.08-15.54-.64-9.45,5.29-6.25,11.21,12.66,14.42,14.58,15.22c0,0-6.89,2.24-11.05,1.6,0,0-1.28,5,3.52,11.86,3.82,5.48,5.92,7.19,7.42,8.16a34.8,34.8,0,0,0-3.26,7.7h2.76A20.5,20.5,0,0,1,994.25,232.37Z"/><path class="cls-6" d="M980.81,128.71a3.7,3.7,0,0,1-2.77-1.28,5.55,5.55,0,0,0-.12.58,5.61,5.61,0,1,0,5.61-5.61h0a3.72,3.72,0,0,1-2.7,6.3Z"/></g></g></svg>